<svg xmlns="http://www.w3.org/2000/svg" viewBox="0 0 48 48" id="Clipboard"><path fill="#5c76e4" d="M48 24A24 24 0 0 0 24 0 24 24 0 0 0 0 24a24 24 0 0 0 24 24 24 24 0 0 0 24-24z" class="color512da8 svgShape"></path><g fill="#fefeff" fill-rule="evenodd" class="colorffffff svgShape"><path d="M13.5 11.499v25h21v-25h-4.622v2.123h-11.75v-2.123z" fill="#fcfdff" class="color000000 svgShape"></path><path d="M2390.924 609.595a2.5 2.5 0 0 0-2.488 2.351h-2.514v2.5h10v-2.5h-2.514a2.5 2.5 0 0 0-2.484-2.351zm0 .996c.787 0 1.415.593 1.486 1.355h-2.976a1.489 1.489 0 0 1 1.49-1.355z" color="#000" font-family="sans-serif" font-weight="400" overflow="visible" style="line-height:normal;text-indent:0;text-align:start;text-decoration-line:none;text-decoration-style:solid;text-decoration-color:#000;text-transform:none;white-space:normal;isolation:auto;mix-blend-mode:normal;solid-color:#000;solid-opacity:1" transform="translate(-2366.921 -601.697)" fill="#fcfdff" class="color000000 svgShape"></path></g></svg>